<svg width="500" height="209" viewBox="0 0 500 209" fill="none" xmlns="http://www.w3.org/2000/svg">
<path d="M444.054 41.203L395.541 49.7031L365.422 144.009L397.896 138.273L421.369 51.6108H426.066L403.166 127.437C403.166 127.437 413.146 127.113 422.529 123.609C431.923 120.105 434.851 110.865 434.851 110.865C434.851 110.865 448.644 64.0301 451.871 51.6108C455.098 39.1915 444.054 41.203 444.054 41.203Z" fill="#00598F"/>
<path d="M376.367 96.0063L348.197 99.4064C348.197 99.4064 341.838 124.894 339.782 130.63C338.312 135.73 334.5 136.041 336.268 130.63C337.739 123.298 342.723 103.235 345.065 95.578C347.408 87.9344 349.177 87.9344 349.177 87.9344L380.575 84.1061C380.575 84.1061 394.367 52.2468 380.575 53.5185C366.782 54.7903 356.611 55.3354 343.894 58.1904C329.217 61.4866 325.894 71.6738 323.157 77.7342C320.42 83.7817 310.727 119.469 309.855 124.569C308.982 129.669 303.986 141.141 313.966 142.725C325.404 143.049 353.874 137.625 353.874 137.625C353.874 137.625 363.555 134.432 367.368 122.973C371.18 111.514 376.367 96.0063 376.367 96.0063ZM350.348 77.9808C350.934 75.9953 353.503 67.1447 354.459 64.3546C355.631 60.5263 359.372 61.7202 358.714 64.5882C358.057 67.4562 355.272 76.0342 354.244 79.4862C353.204 83.8725 348.507 84.0282 350.348 77.9808Z" fill="#00598F"/>
<path d="M146.317 137.637C146.317 137.637 139.959 163.125 137.903 168.861C136.588 173.948 131.592 175.388 133.648 167.745C135.118 160.413 140.831 141.466 143.186 133.822C145.54 126.178 147.297 126.178 147.297 126.178L178.695 122.35C178.695 122.35 192.488 90.4908 178.695 91.7626C164.902 93.0344 154.731 93.5794 142.014 96.4344C127.337 99.7307 124.015 109.918 121.278 115.978C118.541 122.039 108.859 157.713 107.975 162.813C107.091 167.914 102.107 179.385 112.087 180.969C123.525 181.293 151.994 175.869 151.994 175.869C151.994 175.869 161.675 172.676 165.488 161.217C169.301 149.758 174.488 134.237 174.488 134.237L146.317 137.637ZM148.612 115.9C149.198 113.72 151.755 104.013 152.711 100.951C153.883 96.7459 157.994 97.9398 157.349 101.08C156.703 104.221 153.907 113.642 152.879 117.432C151.875 122.22 146.771 122.545 148.612 115.9Z" fill="#00598F"/>
<path d="M285.498 100.354C285.498 100.354 274.346 139.857 273.08 144.425C271.813 148.993 265.251 149.421 266.422 145.268C267.163 142.66 280.597 99.588 290.434 68.0791L323.935 62.434L328.632 43.7466L295.872 50.6765C298.824 41.229 300.76 35.0388 300.76 35.0388L269.948 39.503L264.928 57.23L228.917 64.8477C232.12 54.6086 234.247 47.7826 234.247 47.7826L203.435 52.2468L198.021 71.3883L23.4736 108.322L23.868 112.994L194.376 84.2748L173.22 158.985C173.22 158.985 171.463 167.901 178.79 168.861C186.129 169.821 215.758 165.033 215.758 165.033C215.758 165.033 231.893 161.84 237.474 141.453C243.044 121.065 246.857 108.75 246.857 108.75L218.985 113.097C218.985 113.097 207.833 152.6 206.567 157.168C205.3 161.736 198.738 162.165 199.909 158.012C200.662 155.352 214.551 110.839 224.423 79.2006L260.41 73.1402L239.709 146.229C239.709 146.229 237.953 155.144 245.279 156.104C252.618 157.065 282.247 152.276 282.247 152.276C282.247 152.276 298.382 149.084 303.964 128.696C309.545 108.309 313.358 95.9933 313.358 95.9933L285.498 100.354Z" fill="#00598F"/>
<path d="M79.2294 139.545C79.2294 139.545 84.3688 117.081 85.2891 113.422C86.2214 109.762 89.7831 109.918 89.1974 112.786C88.6118 115.654 86.2572 128.073 86.2572 128.073L114.715 124.245L117.356 112.137C117.356 112.137 119.412 104.805 110.317 104.169C103.863 104.805 73.6359 107.997 68.6519 110.216C64.7675 111.955 58.9708 113.72 56.3294 121.053C53.1143 129.981 47.5327 150.368 47.5327 150.368L78.6318 145.904C78.6318 145.904 70.7076 180.787 69.632 184.356C68.5563 187.912 64.6958 187.808 65.3292 184.784C65.9627 181.76 68.6519 167.901 68.6519 167.901L41.3654 170.769C41.3654 170.769 38.3296 180.852 37.8396 186.056C37.3496 191.26 39.991 194.66 46.0506 193.7C51.943 192.765 82.6597 188.236 88.301 186.367C95.0539 184.135 100.624 175.856 102.679 166.927C104.735 158.012 109.719 136.34 109.719 136.34L79.2294 139.545Z" fill="#00598F"/>
<path d="M436.428 122.13L465.567 117.458L489.841 34.6624L459.902 37.6343L436.428 122.13Z" fill="#00598F"/>
<path d="M469.474 3.19243L461.18 33.0662L491.203 29.9906L500 7.62939e-06L469.474 3.19243Z" fill="#00598F"/>
<path d="M397.883 138.273L0 209L385.369 168.64L397.883 138.273Z" fill="#FFD600"/>
</svg>
